<?xml version="1.0" encoding="utf-8"?>
<!-- Generator: Adobe Illustrator 20.1.0, SVG Export Plug-In . SVG Version: 6.00 Build 0)  -->
<svg version="1.1" id="Layer_1" xmlns="http://www.w3.org/2000/svg" xmlns:xlink="http://www.w3.org/1999/xlink" x="0px" y="0px"
	 viewBox="0 0 600 900" style="enable-background:new 0 0 600 900;" xml:space="preserve">
<style type="text/css">
	.st0{opacity:0.8;fill:#FFFFFF;stroke:#FFFFFF;stroke-miterlimit:10;}
</style>
<circle class="st0" cx="300.9" cy="304.2" r="296.6"/>
<g>
	<g>
		<path d="M110.3,167.6c12.2,4.6,24.4,9.2,36.7,13.9c29.2,11,58.4,22.1,87.6,33.1c35.5,13.4,71,26.8,106.4,40.2
			c30.7,11.6,61.3,23.2,92,34.8c10.1,3.8,20.1,7.6,30.2,11.4c4.7,1.8,9.5,4.2,14.4,5.4c0.2,0.1,0.4,0.2,0.7,0.2
			c3,1.1,4.3-3.7,1.3-4.8c-12.2-4.6-24.4-9.2-36.7-13.9c-29.2-11-58.4-22.1-87.6-33.1c-35.5-13.4-71-26.8-106.4-40.2
			c-30.7-11.6-61.3-23.2-92-34.8c-10.1-3.8-20.1-7.6-30.2-11.4c-4.7-1.8-9.5-4.2-14.4-5.4c-0.2-0.1-0.4-0.2-0.7-0.2
			C108.6,161.6,107.3,166.5,110.3,167.6L110.3,167.6z"/>
	</g>
</g>
<g>
	<g>
		<path d="M111.3,444.9c12.2-4.6,24.3-9.1,36.5-13.7c29.4-11,58.8-22.1,88.1-33.1c35.4-13.3,70.8-26.6,106.2-39.9
			c30.6-11.5,61.2-23,91.8-34.5c10.1-3.8,20.2-7.6,30.3-11.4c4.7-1.8,9.9-3.2,14.5-5.4c0.2-0.1,0.4-0.2,0.7-0.2c3-1.1,1.7-6-1.3-4.8
			c-12.2,4.6-24.3,9.1-36.5,13.7c-29.4,11-58.8,22.1-88.1,33.1c-35.4,13.3-70.8,26.6-106.2,39.9c-30.6,11.5-61.2,23-91.8,34.5
			c-10.1,3.8-20.2,7.6-30.3,11.4c-4.7,1.8-9.9,3.2-14.5,5.4c-0.2,0.1-0.4,0.2-0.7,0.2C107,441.2,108.3,446.1,111.3,444.9
			L111.3,444.9z"/>
	</g>
</g>
</svg>
